# xmcd
#
# Track frame offsets:
#	150
#	18863
#	40580
#	59920
#	77370
#	94017
#	120143
#	130853
#	150716
#	165066
#	177302
#	202320
#
# Disc length: 2832 seconds
#
# Revision: 1
# Processed by: cddbd v1.5.1PL0 Copyright (c) Steve Scherf et al.
# Submitted via: CDex 1.50Beta5
#
DISCID=8a0b0e0c
DTITLE=猫野こめっと - ねこべすと DISC 2
DYEAR=1900
DGENRE=
TTITLE0=ワタシの気持ち、アナタに届け!
TTITLE1=In Your Heart
TTITLE2=れむ/雨あがりの午後 〜Vocal Version〜
TTITLE3=れむ/天使の舞い降りた街
TTITLE4=Sweet Dreams...
TTITLE5=れむ/Regret
TTITLE6=No Title
TTITLE7=No Title
TTITLE8=No Title
TTITLE9=No Title
TTITLE10=No Title
TTITLE11=No Title
EXTD=
EXTT0=
EXTT1=
EXTT2=
EXTT3=
EXTT4=
EXTT5=
EXTT6=
EXTT7=
EXTT8=
EXTT9=
EXTT10=
EXTT11=
PLAYORDER=
